<svg width="13" height="12" viewBox="0 0 13 12" fill="none" xmlns="http://www.w3.org/2000/svg">
<path d="M12.2171 7.16025H3.38466C3.19752 7.16125 3.01758 7.08947 2.88418 6.9606C2.75078 6.83173 2.67477 6.65624 2.67275 6.4725V5.46075C2.67275 5.07 2.98669 4.76175 3.38466 4.76175H12.2919C12.6861 4.76175 13 5.0745 13 5.46075V6.465C12.9244 6.852 12.6066 7.16025 12.2171 7.16025ZM9.92932 3.28875H1.01749C0.830227 3.29015 0.650058 3.2185 0.51657 3.08954C0.383082 2.96058 0.307194 2.78487 0.30558 2.601V1.58925C0.30558 1.2765 0.624106 0.96825 1.01749 0.96825H9.92474C10.2433 0.96825 10.5572 1.281 10.5572 1.58925V2.5935C10.5572 2.9805 10.244 3.28875 9.92932 3.28875ZM1.01825 8.71125H9.93009C10.3242 8.71125 10.6382 9.0195 10.6382 9.4065V10.4108C10.639 10.5951 10.5653 10.7722 10.4333 10.9033C10.3012 11.0343 10.1216 11.1086 9.93391 11.1097H1.01825C0.624105 11.0317 0.310163 10.7227 0.310163 10.3365V9.3285C0.306344 9.02025 0.624105 8.71125 1.01825 8.71125Z" fill="white"/>
</svg>
