<svg xmlns="http://www.w3.org/2000/svg" viewBox="0 0 434.33 52.28"><defs><style>.cls-1{fill:#3be28f;}</style></defs><g id="Layer_2" data-name="Layer 2"><g id="Layer_1-2" data-name="Layer 1"><path class="cls-1" d="M40.54,26.07a16,16,0,0,1-6.84,6.1,24.75,24.75,0,0,1-11.18,2.3H16.18a1.09,1.09,0,0,0-1.12,1.05V50.71A1.08,1.08,0,0,1,14,51.77H1.12A1.09,1.09,0,0,1,0,50.71V1.57A1.09,1.09,0,0,1,1.12.51h21.4a25.66,25.66,0,0,1,11.1,2.18,15.48,15.48,0,0,1,6.88,6,16.9,16.9,0,0,1,2.31,8.87A16.31,16.31,0,0,1,40.54,26.07ZM27.44,17.6c0-3.74-2.13-5.6-6.38-5.6H16.18a1.09,1.09,0,0,0-1.12,1.05v9a1.09,1.09,0,0,0,1.12,1.05h4.88Q27.44,23.12,27.44,17.6Z"/><path class="cls-1" d="M77.87,51.77a1.32,1.32,0,0,1-1.15-.65L66.33,32.87H64.71V50.53a1.27,1.27,0,0,1-1.3,1.24H51a1.28,1.28,0,0,1-1.31-1.24V1.75A1.28,1.28,0,0,1,51,.51H73.4A25.81,25.81,0,0,1,84.47,2.65a15.67,15.67,0,0,1,6.84,5.89,15.78,15.78,0,0,1,2.3,8.4,14.72,14.72,0,0,1-3,9.2,15.78,15.78,0,0,1-7.46,5.18,1.2,1.2,0,0,0-.63,1.76l10.3,16.84a1.24,1.24,0,0,1-1.13,1.85ZM64.71,21.89A1.27,1.27,0,0,0,66,23.12h6.15a6.72,6.72,0,0,0,4.61-1.38,5.11,5.11,0,0,0,1.54-4,5,5,0,0,0-1.58-3.89,6.63,6.63,0,0,0-4.57-1.42H66a1.28,1.28,0,0,0-1.31,1.24Z"/><path class="cls-1" d="M197.06.51a1.28,1.28,0,0,1,1.31,1.24V34.47q0,8.64-5,13.23t-13.64,4.58q-9.22,0-14.72-4.87-5.1-4.53-5.47-12.75a1.3,1.3,0,0,1,1.33-1.29h12.31a1.28,1.28,0,0,1,1.3,1.11c.31,3.29,1.86,4.93,4.63,4.93s4.15-1.65,4.15-4.94V1.75A1.28,1.28,0,0,1,184.62.51Z"/><path class="cls-1" d="M223.19,13.19V19a1.31,1.31,0,0,0,1.34,1.26h14.63a1.3,1.3,0,0,1,1.33,1.26v8.31a1.3,1.3,0,0,1-1.33,1.26H224.53a1.31,1.31,0,0,0-1.34,1.26v6.71a1.3,1.3,0,0,0,1.34,1.26h16.93a1.3,1.3,0,0,1,1.33,1.27v8.89a1.29,1.29,0,0,1-1.33,1.26h-32a1.3,1.3,0,0,1-1.33-1.26V1.77A1.3,1.3,0,0,1,209.46.51h32a1.29,1.29,0,0,1,1.33,1.26v8.89a1.3,1.3,0,0,1-1.33,1.27H224.53A1.3,1.3,0,0,0,223.19,13.19Z"/><path class="cls-1" d="M252.52,12.54A23.25,23.25,0,0,1,262,3.31,29.32,29.32,0,0,1,276.15,0q10.14,0,17.06,5.13a22.88,22.88,0,0,1,8.6,12.66,1,1,0,0,1-1.05,1.26H286.55a1.06,1.06,0,0,1-.93-.55,10.22,10.22,0,0,0-3.75-3.88,11.41,11.41,0,0,0-5.95-1.53,10.54,10.54,0,0,0-8.34,3.53q-3.12,3.52-3.11,9.41t3.11,9.49a10.57,10.57,0,0,0,8.34,3.53,11.41,11.41,0,0,0,5.95-1.53,10.32,10.32,0,0,0,3.75-3.89,1.06,1.06,0,0,1,.93-.55h14.21a1,1,0,0,1,1.05,1.26A22.87,22.87,0,0,1,293.21,47q-6.91,5.12-17.06,5.12A29.43,29.43,0,0,1,262,48.83a23.34,23.34,0,0,1-9.49-9.24A27.1,27.1,0,0,1,249.17,26,27,27,0,0,1,252.52,12.54Z"/><path class="cls-1" d="M350.85,1.5v9.36a1,1,0,0,1-1,1H337.45a1,1,0,0,0-1.05,1V50.78a1,1,0,0,1-1,1h-13a1,1,0,0,1-1.05-1V12.84a1,1,0,0,0-1-1h-12.2a1,1,0,0,1-1-1V1.5a1,1,0,0,1,1-1h41.72A1,1,0,0,1,350.85,1.5Z"/><path class="cls-1" d="M372.3,1.7V50.58A1.23,1.23,0,0,1,371,51.77H358.5a1.23,1.23,0,0,1-1.27-1.19V1.7A1.23,1.23,0,0,1,358.5.51H371A1.23,1.23,0,0,1,372.3,1.7Z"/><path class="cls-1" d="M415.19,43.41H397.5a1.05,1.05,0,0,0-1,.69l-2.44,7a1.07,1.07,0,0,1-1,.69H379.5a1,1,0,0,1-1-1.35l19-49.25a1.06,1.06,0,0,1,1-.66h15.88a1.05,1.05,0,0,1,1,.66l18.91,49.26a1,1,0,0,1-1,1.34H419.64a1.07,1.07,0,0,1-1-.69l-2.44-7A1.05,1.05,0,0,0,415.19,43.41Zm-3.47-12.23L407.36,18.8a1.08,1.08,0,0,0-2,0L401,31.19a1,1,0,0,0,1,1.31h8.67A1,1,0,0,0,411.72,31.18Z"/><rect class="cls-1" x="104.45" y="0.85" width="45.17" height="16.43" rx="2.13"/><rect class="cls-1" x="104.45" y="34.85" width="45.17" height="16.43" rx="2.13"/></g></g></svg>